<?xml version="1.0" encoding="utf-8"?>
<!-- Generator: Adobe Illustrator 23.1.1, SVG Export Plug-In . SVG Version: 6.00 Build 0)  -->
<svg version="1.1" id="Layer_1" xmlns="http://www.w3.org/2000/svg" xmlns:xlink="http://www.w3.org/1999/xlink" x="0px" y="0px"
	 viewBox="0 0 500 500" style="enable-background:new 0 0 500 500;" xml:space="preserve">
<style type="text/css">
	.st0{fill:#BDB5A4;}
</style>
<path class="st0" d="M250,45C136.8,45,45,136.8,45,250s91.8,205,205,205s205-91.8,205-205S363.2,45,250,45z M287.3,369
	c0,23.1-16.9,23-37.8,23s-37.8,0.1-37.8-23V220c0-23.1,16.9-26,37.8-26s37.8,2.9,37.8,26V369z M249.5,173.7
	c-20.9,0-37.8-16.9-37.8-37.8S228.6,98,249.5,98s37.8,16.9,37.8,37.8S270.4,173.7,249.5,173.7z"/>
</svg>
