<svg xmlns="http://www.w3.org/2000/svg" viewBox="0 0 318.86 388"><defs><style>.a{fill:none;}.b{fill:#bdb5a4;}.c{fill:#fff;}</style></defs><title>copy</title><path class="a" d="M386.06,131h-57.3V360.59A23.4,23.4,0,0,1,305.4,384H186.24v36.67A8.37,8.37,0,0,0,194.6,429H386.06a8.37,8.37,0,0,0,8.37-8.37V139.41A8.38,8.38,0,0,0,386.06,131Z" transform="translate(-90.57 -56)"/><path class="b" d="M386.06,116h-57.3V79.37A23.39,23.39,0,0,0,305.4,56H113.94A23.39,23.39,0,0,0,90.57,79.37V360.59A23.4,23.4,0,0,0,113.94,384h57.3v36.67A23.39,23.39,0,0,0,194.6,444H386.06a23.39,23.39,0,0,0,23.37-23.37V139.41A23.4,23.4,0,0,0,386.06,116ZM105.57,360.59V79.37A8.37,8.37,0,0,1,113.94,71H305.4a8.37,8.37,0,0,1,8.36,8.37V360.59A8.38,8.38,0,0,1,305.4,369H113.94A8.38,8.38,0,0,1,105.57,360.59Zm288.86,60a8.37,8.37,0,0,1-8.37,8.37H194.6a8.37,8.37,0,0,1-8.36-8.37V384H305.4a23.4,23.4,0,0,0,23.36-23.37V131h57.3a8.38,8.38,0,0,1,8.37,8.37Z" transform="translate(-90.57 -56)"/><rect class="c" x="15" y="15" width="208.19" height="297.96" rx="8.37"/></svg>