<svg xmlns="http://www.w3.org/2000/svg" viewBox="0 0 328.86 398"><defs><style>.a{fill:none;}.b{fill:#bdb5a4;}.c{fill:#fff;}</style></defs><title>copy</title><path class="a" d="M386.06,136h-52.3V360.59A28.4,28.4,0,0,1,305.4,389H191.24v31.67A3.37,3.37,0,0,0,194.6,424H386.06a3.37,3.37,0,0,0,3.37-3.37V139.41A3.37,3.37,0,0,0,386.06,136Z" transform="translate(-85.57 -51)"/><path class="b" d="M386.06,111h-52.3V79.37A28.39,28.39,0,0,0,305.4,51H113.94A28.4,28.4,0,0,0,85.57,79.37V360.59A28.41,28.41,0,0,0,113.94,389h52.3v31.67A28.39,28.39,0,0,0,194.6,449H386.06a28.39,28.39,0,0,0,28.37-28.37V139.41A28.4,28.4,0,0,0,386.06,111ZM110.57,360.59V79.37A3.37,3.37,0,0,1,113.94,76H305.4a3.37,3.37,0,0,1,3.36,3.37V360.59A3.37,3.37,0,0,1,305.4,364H113.94A3.37,3.37,0,0,1,110.57,360.59Zm278.86,60a3.37,3.37,0,0,1-3.37,3.37H194.6a3.37,3.37,0,0,1-3.36-3.37V389H305.4a28.4,28.4,0,0,0,28.36-28.37V136h52.3a3.37,3.37,0,0,1,3.37,3.37Z" transform="translate(-85.57 -51)"/><rect class="c" x="25" y="25" width="198.19" height="287.96" rx="3.37"/></svg>