<?xml version="1.0" encoding="utf-8"?>
<!-- Generator: Adobe Illustrator 23.1.1, SVG Export Plug-In . SVG Version: 6.00 Build 0)  -->
<svg version="1.1" id="Layer_1" xmlns="http://www.w3.org/2000/svg" xmlns:xlink="http://www.w3.org/1999/xlink" x="0px" y="0px"
	 viewBox="0 0 500 500" style="enable-background:new 0 0 500 500;" xml:space="preserve">
<style type="text/css">
	.st0{fill:none;}
	.st1{fill:#243B58;}
	.st2{fill:#FFFFFF;}
</style>
<g>
	<path class="st0" d="M386.1,136h-52.3v224.5c0,15.6-12.7,28.4-28.4,28.4H191.2v31.7c0,1.9,1.5,3.4,3.4,3.4h191.5
		c1.9,0,3.4-1.5,3.4-3.4V139.4C389.4,137.6,387.9,136,386.1,136z"/>
	<path class="st1" d="M386.1,111h-52.3V79.4c0-15.6-12.7-28.4-28.4-28.4H113.9c-15.6,0-28.4,12.7-28.4,28.4v281.2
		c0,15.6,12.7,28.4,28.4,28.4h52.3v31.7c0,15.6,12.7,28.4,28.4,28.4h191.5c15.6,0,28.4-12.7,28.4-28.4V139.4
		C414.4,123.8,401.7,111,386.1,111z M110.6,360.6V79.4c0-1.9,1.5-3.4,3.4-3.4h191.5c1.9,0,3.4,1.5,3.4,3.4v281.2
		c0,1.9-1.5,3.4-3.4,3.4H113.9C112.1,364,110.6,362.4,110.6,360.6z M389.4,420.6c0,1.9-1.5,3.4-3.4,3.4H194.6
		c-1.9,0-3.4-1.5-3.4-3.4V389h114.2c15.6,0,28.4-12.7,28.4-28.4V136h52.3c1.9,0,3.4,1.5,3.4,3.4V420.6z"/>
	<path class="st2" d="M305.4,364c1.9,0,3.4-1.5,3.4-3.4V79.4c0-1.9-1.5-3.4-3.4-3.4H113.9c-1.9,0-3.4,1.5-3.4,3.4v281.2
		c0,1.9,1.5,3.4,3.4,3.4H305.4z"/>
</g>
</svg>
