<svg xmlns="http://www.w3.org/2000/svg" viewBox="0 0 329 398.1"><defs><style>.a{fill:none;}.b{fill:#bdb5a4;}.c{fill:#fff;}</style></defs><title>copy</title><path class="a" d="M386.1,136H333.8V360.5a28.44,28.44,0,0,1-28.4,28.4H191.2v31.7a3.37,3.37,0,0,0,3.4,3.4H386.1a3.37,3.37,0,0,0,3.4-3.4V139.4A3.58,3.58,0,0,0,386.1,136Z" transform="translate(-85.5 -51)"/><path class="b" d="M386.1,111H333.8V79.4A28.44,28.44,0,0,0,305.4,51H113.9A28.44,28.44,0,0,0,85.5,79.4V360.6A28.44,28.44,0,0,0,113.9,389h52.3v31.7a28.44,28.44,0,0,0,28.4,28.4H386.1a28.44,28.44,0,0,0,28.4-28.4V139.4A28.57,28.57,0,0,0,386.1,111ZM110.6,360.6V79.4A3.37,3.37,0,0,1,114,76H305.5a3.37,3.37,0,0,1,3.4,3.4V360.6a3.37,3.37,0,0,1-3.4,3.4H113.9A3.42,3.42,0,0,1,110.6,360.6Zm278.8,60A3.37,3.37,0,0,1,386,424H194.6a3.37,3.37,0,0,1-3.4-3.4V389H305.4a28.44,28.44,0,0,0,28.4-28.4V136h52.3a3.37,3.37,0,0,1,3.4,3.4V420.6Z" transform="translate(-85.5 -51)"/><path class="c" d="M305.4,364a3.37,3.37,0,0,0,3.4-3.4V79.4a3.37,3.37,0,0,0-3.4-3.4H113.9a3.37,3.37,0,0,0-3.4,3.4V360.6a3.37,3.37,0,0,0,3.4,3.4Z" transform="translate(-85.5 -51)"/></svg>