<svg xmlns="http://www.w3.org/2000/svg" viewBox="0 0 410 410"><defs><style>.a{fill:#243b58;}</style></defs><title>list-icon-blue</title><path class="a" d="M250,45C136.8,45,45,136.8,45,250s91.8,205,205,205,205-91.8,205-205S363.2,45,250,45ZM145,353a28,28,0,1,1,28-28A28,28,0,0,1,145,353Zm0-75a28,28,0,1,1,28-28A28,28,0,0,1,145,278Zm0-75a28,28,0,1,1,28-28A28,28,0,0,1,145,203ZM402,327a12,12,0,0,1-12,12H201a12,12,0,0,1-12-12v-4.1a12,12,0,0,1,12-12H390a12,12,0,0,1,12,12Zm0-75a12,12,0,0,1-12,12H201a12,12,0,0,1-12-12v-4.1a12,12,0,0,1,12-12H390a12,12,0,0,1,12,12Zm-12-63H201a12,12,0,0,1-12-12v-4.1a12,12,0,0,1,12-12H390a12,12,0,0,1,12,12V177A12,12,0,0,1,390,189Z" transform="translate(-45 -45)"/></svg>