<?xml version="1.0" encoding="utf-8"?>
<!-- Generator: Adobe Illustrator 24.1.2, SVG Export Plug-In . SVG Version: 6.00 Build 0)  -->
<svg version="1.1" id="Layer_1" xmlns="http://www.w3.org/2000/svg" xmlns:xlink="http://www.w3.org/1999/xlink" x="0px" y="0px"
	 viewBox="0 0 500 500" style="enable-background:new 0 0 500 500;" xml:space="preserve">
<style type="text/css">
	.st0{fill:#BDB5A4;}
</style>
<g>
	<path class="st0" d="M250,45C136.8,45,45,136.8,45,250s91.8,205,205,205s205-91.8,205-205S363.2,45,250,45z M92,264
		c-6.6,0-12-5.4-12-12v-4.1c0-6.6,5.4-12,12-12h149.2c1,0,2,0.1,3,0.4c-1.2-10.9-3.8-21.8-7.7-32.2l24.9,14.4l55.1,31.8L261.3,282
		l-24.8,14.3c4-10.6,6.6-21.7,7.8-32.8c-1,0.3-2,0.4-3,0.4H92z M379.6,362.5c0,14.1-11.5,25.5-25.7,25.5H215.7
		c-14.2,0-25.7-11.4-25.7-25.5v-56.3h0c0,0,0-0.1,0-0.1c0-6.5,5.2-11.7,11.7-11.7c6.5,0,11.7,5.2,11.7,11.7c0,0,0,0.1,0,0.1h0v56.3
		c0,1.1,1.1,2.1,2.3,2.1h138.1c1.2,0,2.3-1,2.3-2.1v-224c0-1.1-1.1-2.1-2.3-2.1H215.7c-1.2,0-2.3,1-2.3,2.1v55.1h0c0,0,0,0.1,0,0.1
		c0,6.5-5.2,11.7-11.7,11.7c-6.5,0-11.7-5.2-11.7-11.7c0,0,0-0.1,0-0.1h0v-55.1c0-14.1,11.5-25.5,25.7-25.5h138.1
		c14.2,0,25.7,11.4,25.7,25.5V362.5z"/>
</g>
</svg>
