<svg xmlns="http://www.w3.org/2000/svg" viewBox="0 0 410 410"><defs><style>.a{fill:#243b58;}</style></defs><title>login-icon-blue</title><path class="a" d="M250,45C136.8,45,45,136.8,45,250s91.8,205,205,205,205-91.8,205-205S363.2,45,250,45ZM92,264a12,12,0,0,1-12-12v-4.1a12,12,0,0,1,12-12H241.2a10.32,10.32,0,0,1,3,.4,133.75,133.75,0,0,0-7.7-32.2l24.9,14.4,55.1,31.8L261.3,282l-24.8,14.3a134,134,0,0,0,7.8-32.8,10.32,10.32,0,0,1-3,.4H92Zm287.6,98.5A25.59,25.59,0,0,1,353.9,388H215.7A25.59,25.59,0,0,1,190,362.5V306.2h0v-.1a11.7,11.7,0,0,1,23.4,0v.1h0v56.3a2.3,2.3,0,0,0,2.3,2.1H353.8a2.3,2.3,0,0,0,2.3-2.1v-224a2.3,2.3,0,0,0-2.3-2.1H215.7a2.3,2.3,0,0,0-2.3,2.1v55.1h0v.1a11.7,11.7,0,0,1-23.4,0v-.1h0V138.5A25.59,25.59,0,0,1,215.7,113H353.8a25.59,25.59,0,0,1,25.7,25.5v224Z" transform="translate(-45 -45)"/></svg>