<svg xmlns="http://www.w3.org/2000/svg" viewBox="0 0 410 410"><defs><style>.a{fill:#243b58;}</style></defs><title>profile-icon-blue</title><path class="a" d="M249.3,45.2c-113.2.5-204.6,92.7-204.1,205.9s92.7,204.6,205.9,204.1,204.6-92.7,204.1-205.9h0C454.7,136.1,362.5,44.7,249.3,45.2Zm2.1,301.7-88.8.4c-.3-64.1,56-64.2,68.4-81.1l1.3-7.7c-17.5-8.8-30.1-30.2-30.2-55.2-.1-33.1,21.2-59.8,47.7-59.9S297.9,170,298,202.9c.1,24.9-12,46.2-29.3,55.3l1.7,8.6c13.7,15.9,68.1,16.6,68.4,79.6Z" transform="translate(-45.2 -45.2)"/></svg>