<?xml version="1.0" encoding="utf-8"?>
<!-- Generator: Adobe Illustrator 24.1.2, SVG Export Plug-In . SVG Version: 6.00 Build 0)  -->
<svg version="1.1" id="Layer_1" xmlns="http://www.w3.org/2000/svg" xmlns:xlink="http://www.w3.org/1999/xlink" x="0px" y="0px"
	 viewBox="0 0 500 500" style="enable-background:new 0 0 500 500;" xml:space="preserve">
<style type="text/css">
	.st0{fill:#BDB5A4;}
</style>
<path class="st0" d="M250,45C136.8,45,45,136.8,45,250s91.8,205,205,205s205-91.8,205-205S363.2,45,250,45z M145,353
	c-15.5,0-28-12.5-28-28c0-15.5,12.5-28,28-28s28,12.5,28,28C173,340.5,160.5,353,145,353z M145,278c-15.5,0-28-12.5-28-28
	c0-15.5,12.5-28,28-28s28,12.5,28,28C173,265.5,160.5,278,145,278z M145,203c-15.5,0-28-12.5-28-28c0-15.5,12.5-28,28-28
	s28,12.5,28,28C173,190.5,160.5,203,145,203z M402,327c0,6.6-5.4,12-12,12H201c-6.6,0-12-5.4-12-12v-4.1c0-6.6,5.4-12,12-12h189
	c6.6,0,12,5.4,12,12V327z M402,252c0,6.6-5.4,12-12,12H201c-6.6,0-12-5.4-12-12v-4.1c0-6.6,5.4-12,12-12h189c6.6,0,12,5.4,12,12V252
	z M390,189H201c-6.6,0-12-5.4-12-12v-4.1c0-6.6,5.4-12,12-12h189c6.6,0,12,5.4,12,12v4.1C402,183.6,396.6,189,390,189z"/>
</svg>
