<svg xmlns="http://www.w3.org/2000/svg" viewBox="0 0 379.14 346.62"><defs><style>.a{fill:#bdb5a4;}</style></defs><title>cabin-icon</title><path class="a" d="M143.56,409.21a17.5,17.5,0,0,1-17.5-17.5V188a17.5,17.5,0,0,1,35,0V391.71A17.49,17.49,0,0,1,143.56,409.21Z" transform="translate(-60.43 -62.59)"/><path class="a" d="M355.72,409.21a17.49,17.49,0,0,1-17.5-17.5V188a17.5,17.5,0,1,1,35,0V391.71A17.5,17.5,0,0,1,355.72,409.21Z" transform="translate(-60.43 -62.59)"/><path class="a" d="M422.07,268.32a17.41,17.41,0,0,1-12.37-5.13L239,92.46a17.5,17.5,0,1,1,24.74-24.75L434.44,238.44a17.51,17.51,0,0,1-12.37,29.88Z" transform="translate(-60.43 -62.59)"/><path class="a" d="M77.93,269.11a17.51,17.51,0,0,1-12.37-29.88L237.08,67.71a17.5,17.5,0,0,1,24.75,24.75L90.3,264A17.41,17.41,0,0,1,77.93,269.11Z" transform="translate(-60.43 -62.59)"/></svg>